<svg xmlns="http://www.w3.org/2000/svg" width="430" height="430" fill="none" viewBox="0 0 430 430"><g stroke-linecap="round" stroke-linejoin="round" stroke-width="6"><path stroke="#08a88a" d="M215 56.04v51.37"/><path stroke="#121331" d="M241.69 134.94h106.75l40.03 66.72h-80.06l-93.4-93.4-93.4 93.4H41.54l40.03-66.72h106.75"/><path stroke="#08a88a" d="M255.35 375.21h-80.7v-66.44c0-22.28 18.06-40.35 40.35-40.35 22.28 0 40.35 18.06 40.35 40.35zM215 268.42v105.9"/><path stroke="#121331" d="M68.22 201.66v173.46h293.56V201.66"/><path stroke="#08a88a" d="M241.64 188.27c0 14.71-11.93 26.64-26.64 26.64s-26.64-11.93-26.64-26.64 11.93-26.64 26.64-26.64 26.64 11.93 26.64 26.64m-93.36 85.93h-40.03v-20.02c0-11.05 8.96-20.02 20.01-20.02s20.01 8.96 20.01 20.02v20.02zm173.47 0h-40.03v-20.02c0-11.05 8.96-20.02 20.01-20.02s20.01 8.96 20.01 20.02v20.02zM281.72 81.57H215V41.54h66.72l-19.84 20.02z"/></g></svg>